<?xml version="1.0" encoding="UTF-8"?>
<svg id="Layer_1" data-name="Layer 1" xmlns="http://www.w3.org/2000/svg" viewBox="0 0 139.77 161.55">
  <defs>
    <style>
      .cls-1 {
        fill: #6a0035;
      }
    </style>
  </defs>
  <path class="cls-1" d="M29.75,41.6L0,48.63c0,1.6,19.53,19.97,21.12,19.97l38.79-16.65c3.25-1.4,7.15-.03,8.55,3.23.51,1.19.57,2.29-.16,2.9L15.77,108.72c-.67.55-1.06,1.37-1.06,2.24v15.83c0,.08,0,.15,0,.23l-1.37,17.42c-.09,1.11.47,2.18,1.43,2.74l24.14,13.98c.44.25.94.39,1.44.39h21.4c.75,0,1.48-.29,2.01-.82l18.62-18.21c.22-.22.4-.46.55-.74l18.92-36.48c.1-.19.22-.38.37-.54h0c2-2.36,5.8-.34,4.98,2.65l-13.83,50.48c-.51,1.84.88,3.67,2.78,3.67h40.74c1.87,0,3.25-1.76,2.8-3.59l-16.37-66.71-3.49-13.28c-.33-1.27-1.48-2.16-2.79-2.16h-8.31c-1.02,0-1.97.54-2.49,1.43l-19.92,33.95c-.36.61-.93,1.07-1.6,1.29l-25.61,8.26c-1.07.35-2.25.03-3.01-.8l-9.33-10.18c-.68-.74-.93-1.78-.65-2.75l4.93-17.54c.14-.51.42-.96.8-1.32l41.62-39.29c.28-.26.58,21.1.74,20.75l24.36-12.23c-2.03-4.2-23.74-30.3-19.66-25.11l-11.17-9.97c-.6-.54-1.41-.8-2.21-.72l-28.68,2.93-27.08,17.08Z"/>
</svg>